<?xml version="1.0" encoding="UTF-8"?>
<svg id="_Слой_1" data-name="Слой_1" xmlns="http://www.w3.org/2000/svg" version="1.1" viewBox="0 0 293.11 85.04">
  <!-- Generator: Adobe Illustrator 29.6.1, SVG Export Plug-In . SVG Version: 2.1.1 Build 9)  -->
  <defs>
    <style>
      .st0 {
        fill: #aa141e;
      }
    </style>
  </defs>
  <g>
    <polygon class="st0" points="65.47 47.92 65.47 47.72 65.38 47.79 65.47 47.92"/>
    <path class="st0" d="M42.52,0C19.04,0,0,19.04,0,42.52s19.04,42.52,42.52,42.52,42.52-19.04,42.52-42.52S66,0,42.52,0M42.52,82.74c-22.21,0-40.22-18.01-40.22-40.22S20.3,2.29,42.52,2.29s40.22,18.01,40.22,40.22-18.01,40.22-40.22,40.22"/>
    <g>
      <path class="st0" d="M62.43,48.26c-1.2-1.13-2.97-1.49-4.96-1.01-.9.21-1.8.6-2.66,1.11l-1.01-.95h0s0,0,0,0l-.87.92-.96-.91.61-.64-1.99-1.88-.45.48-1.48-1.4-.15.16-1.44-1.36-2.96,2.79h0s0,0,0,0l1.61,1.52-.27.29.8.76.68.64-.45.47h0s-.03.03-.03.03l1.99,1.88.03-.03h0s.72-.76.72-.76l.96.91-1.05,1.11h0s0,0,0,0l.99.93c-.48.92-.82,1.86-.99,2.8-.36,2.03.1,3.77,1.3,4.9.85.8,1.99,1.22,3.3,1.22.53,0,1.09-.07,1.67-.21,1.32-.31,2.63-.99,3.84-1.91l2.56,2.41,2.79-2.95h0s-.22-.21-.22-.21l-2.32-2.19c.88-1.29,1.5-2.67,1.74-4.03.36-2.03-.1-3.77-1.3-4.9ZM58.41,56.54c-1.79,1.9-4.22,2.64-5.31,1.61-.49-.46-.66-1.25-.46-2.22.22-1.07.84-2.2,1.76-3.17,1.24-1.32,2.79-2.08,3.99-2.08.53,0,.99.15,1.32.46,1.09,1.02.49,3.49-1.3,5.39Z"/>
      <path class="st0" d="M24.89,62.54l2.52-2.38c1.79,1.36,3.77,2.09,5.52,2.09,1.28,0,2.43-.39,3.29-1.2,1.8-1.7,1.82-4.77.32-7.69l1.02-.96h0s0,0,0,0l-1.05-1.11.58-.55.38-.36.75.79,1.99-1.88-.03-.03h0s-.45-.47-.45-.47l.68-.64.8-.76-.27-.29,21.13-19.93-2.79-2.95h0s0,0,0,0l-2.1,1.98-4.7-5.04-.46.43c-.16.15-.29.33-.42.5-.56.77-.8,1.7-.67,2.61-.21-.05-.42-.07-.64-.08-.49-.03-.95.05-1.38.22-.43.16-.82.42-1.17.74l-.46.43,4.73,5.07-8.66,8.17-8.72-8.17,4.72-5.07h0s0,0,0,0l-.46-.43c-.21-.2-.44-.36-.68-.49-.03-.02-.06-.03-.1-.05-.22-.12-.46-.21-.7-.28-.02,0-.04-.01-.06-.02-.23-.06-.47-.09-.72-.1-.04,0-.09,0-.13,0-.05,0-.1-.01-.15,0-.22,0-.43.03-.64.08.16-1.11-.21-2.29-1.09-3.11l-.46-.43h0s0,0,0,0l-4.71,5.06-2.11-1.98-.04.04-.05-.04-2.66,2.83.03.03-.04.04,6.94,6.5,8.87,8.41-2.23,2.1-.15-.16-1.48,1.4-.45-.48-1.99,1.88.61.64-.96.91-.87-.92h0s0,0,0,0l-1.03.98c-2.81-1.64-5.85-1.79-7.64-.1-2.06,1.94-1.79,5.69.44,8.94l-2.51,2.37h0s0,0,0,0l2.79,2.95ZM28.19,56.56c-.92-.97-1.54-2.1-1.76-3.17-.2-.96-.03-1.75.46-2.22.33-.31.79-.46,1.32-.46,1.2,0,2.74.76,3.99,2.08,1.79,1.9,2.39,4.37,1.3,5.39-1.08,1.03-3.52.29-5.31-1.61Z"/>
    </g>
    <path class="st0" d="M42.83,6.04C22.68,5.87,6.21,22.06,6.04,42.21c-.17,20.15,16.02,36.62,36.17,36.79,20.15.17,36.62-16.02,36.79-36.17.17-20.15-16.02-36.62-36.17-36.79M42.26,73.2c-16.94-.14-30.56-14-30.42-30.94.14-16.94,13.99-30.56,30.94-30.42,16.94.15,30.56,14,30.42,30.94-.14,16.94-14,30.56-30.94,30.42"/>
  </g>
  <g>
    <g>
      <path d="M103.35,21.45h1.99l3.33,8.5h1.15v3.4h-1.91v-1.55h-7.12v1.55h-1.91v-3.4h1.14l3.32-8.5ZM104.36,24.2l-2.27,5.75h4.53l-2.26-5.75Z"/>
      <path d="M111.1,21.45h5.65v1.93h-3.69v1.87h3.69v1.89h-3.69v2.72h3.69v1.93h-5.65v-10.35Z"/>
      <path d="M118.58,21.45h7.44v10.35h-1.99v-8.5h-3.45v8.5h-2v-10.35Z"/>
      <path d="M131.54,21.45h2l3.98,10.35h-2.05l-.81-2.13h-4.22l-.84,2.13h-2.05l3.99-10.35ZM132.55,24.2l-1.39,3.55h2.77l-1.38-3.55Z"/>
      <path d="M139.03,21.45h2.09c1.13,0,1.94.1,2.44.31s.89.55,1.18,1.01c.29.47.43,1.03.43,1.68,0,.72-.19,1.32-.57,1.8-.38.48-.89.81-1.54,1-.38.11-1.07.16-2.08.16v4.38h-1.97v-10.35ZM141,25.5h.63c.49,0,.83-.04,1.03-.11.19-.07.34-.19.45-.35s.17-.36.17-.59c0-.4-.15-.69-.46-.88-.23-.14-.64-.2-1.25-.2h-.56v2.12Z"/>
      <path d="M146.09,21.45h5.72v1.94h-1.89v8.41h-2v-8.41h-1.84v-1.94Z"/>
      <path d="M156.31,21.45h2l3.98,10.35h-2.05l-.81-2.13h-4.22l-.84,2.13h-2.05l3.99-10.35ZM157.32,24.2l-1.39,3.55h2.77l-1.38-3.55Z"/>
      <path d="M164.82,21.45h1.92l2.4,7.22,2.42-7.22h1.92l1.74,10.35h-1.9l-1.11-6.53-2.2,6.53h-1.74l-2.18-6.53-1.14,6.53h-1.92l1.79-10.35Z"/>
      <path d="M176.78,21.45h5.65v1.93h-3.69v1.87h3.69v1.89h-3.69v2.72h3.69v1.93h-5.65v-10.35Z"/>
      <path d="M184.26,21.45h2v3.9h3.45v-3.9h1.99v10.35h-1.99v-4.54h-3.45v4.54h-2v-10.35Z"/>
      <path d="M193.04,21.45h5.72v1.94h-1.89v8.41h-2v-8.41h-1.84v-1.94Z"/>
    </g>
    <g>
      <path d="M98.89,37.92h5.13v1.93h-3.18v8.42h-1.96v-10.35Z"/>
      <path d="M110.45,37.66c1.46,0,2.72.53,3.78,1.59s1.58,2.35,1.58,3.88-.52,2.79-1.56,3.83c-1.04,1.05-2.3,1.57-3.78,1.57s-2.84-.54-3.87-1.61c-1.03-1.07-1.54-2.35-1.54-3.83,0-.99.24-1.9.72-2.73.48-.83,1.14-1.49,1.97-1.97s1.74-.73,2.71-.73ZM110.43,39.58c-.96,0-1.76.33-2.42,1-.65.67-.98,1.51-.98,2.54,0,1.14.41,2.05,1.23,2.72.64.52,1.37.78,2.2.78.93,0,1.73-.34,2.39-1.01.66-.68.99-1.51.99-2.5s-.33-1.82-.99-2.5c-.66-.68-1.47-1.02-2.42-1.02Z"/>
      <path d="M117.66,37.92h2.09c1.13,0,1.94.1,2.44.31.5.21.89.55,1.18,1.01.29.47.43,1.03.43,1.68,0,.72-.19,1.32-.57,1.8s-.89.81-1.54,1c-.38.11-1.07.16-2.08.16v4.38h-1.97v-10.35ZM119.62,41.96h.63c.49,0,.83-.04,1.03-.11.19-.07.34-.19.45-.35s.17-.36.17-.59c0-.4-.15-.69-.46-.88-.23-.14-.64-.2-1.25-.2h-.56v2.12Z"/>
      <path d="M130.62,37.66c1.46,0,2.72.53,3.78,1.59s1.58,2.35,1.58,3.88-.52,2.79-1.56,3.83c-1.04,1.05-2.3,1.57-3.78,1.57s-2.84-.54-3.87-1.61c-1.03-1.07-1.54-2.35-1.54-3.83,0-.99.24-1.9.72-2.73.48-.83,1.14-1.49,1.97-1.97s1.74-.73,2.71-.73ZM130.59,39.58c-.96,0-1.76.33-2.42,1-.65.67-.98,1.51-.98,2.54,0,1.14.41,2.05,1.23,2.72.64.52,1.37.78,2.2.78.93,0,1.73-.34,2.39-1.01.66-.68.99-1.51.99-2.5s-.33-1.82-.99-2.5c-.66-.68-1.47-1.02-2.42-1.02Z"/>
      <path d="M141.19,37.92h1.99l3.33,8.5h1.15v3.4h-1.91v-1.55h-7.12v1.55h-1.91v-3.4h1.14l3.32-8.5ZM142.2,40.66l-2.27,5.75h4.53l-2.26-5.75Z"/>
      <path d="M158.44,39.73l-1.38,1.31c-.94-.99-1.99-1.49-3.16-1.49-.99,0-1.82.34-2.5,1.01-.68.68-1.02,1.51-1.02,2.5,0,.69.15,1.3.45,1.84.3.54.72.96,1.27,1.26s1.16.46,1.83.46c.57,0,1.09-.11,1.57-.32.47-.21.99-.6,1.56-1.17l1.34,1.39c-.76.75-1.49,1.26-2.17,1.55s-1.46.43-2.33.43c-1.61,0-2.93-.51-3.95-1.53-1.02-1.02-1.54-2.33-1.54-3.92,0-1.03.23-1.95.7-2.75s1.13-1.45,2-1.93,1.81-.73,2.81-.73c.85,0,1.68.18,2.47.54.79.36,1.47.87,2.04,1.54Z"/>
      <path d="M160.18,37.92h1.99v3.57l2.81-3.57h2.36l-3.61,4.62,3.96,5.73h-2.34l-3.19-4.6v4.6h-1.99v-10.35Z"/>
      <path d="M173.99,37.66c1.46,0,2.72.53,3.78,1.59,1.05,1.06,1.58,2.35,1.58,3.88s-.52,2.79-1.56,3.83c-1.04,1.05-2.3,1.57-3.78,1.57s-2.84-.54-3.87-1.61-1.54-2.35-1.54-3.83c0-.99.24-1.9.72-2.73.48-.83,1.14-1.49,1.97-1.97.84-.49,1.74-.73,2.71-.73ZM173.97,39.58c-.96,0-1.76.33-2.42,1-.65.67-.98,1.51-.98,2.54,0,1.14.41,2.05,1.23,2.72.64.52,1.37.78,2.2.78.93,0,1.73-.34,2.39-1.01.66-.68.99-1.51.99-2.5s-.33-1.82-.99-2.5c-.66-.68-1.47-1.02-2.42-1.02Z"/>
      <path d="M181.19,37.92h5.13v1.93h-3.18v8.42h-1.96v-10.35Z"/>
      <path d="M192.75,37.66c1.46,0,2.72.53,3.78,1.59s1.58,2.35,1.58,3.88-.52,2.79-1.56,3.83c-1.04,1.05-2.3,1.57-3.78,1.57s-2.84-.54-3.87-1.61c-1.03-1.07-1.54-2.35-1.54-3.83,0-.99.24-1.9.72-2.73.48-.83,1.14-1.49,1.97-1.97s1.74-.73,2.71-.73ZM192.73,39.58c-.96,0-1.76.33-2.42,1-.65.67-.98,1.51-.98,2.54,0,1.14.41,2.05,1.23,2.72.64.52,1.37.78,2.2.78.93,0,1.73-.34,2.39-1.01.66-.68.99-1.51.99-2.5s-.33-1.82-.99-2.5c-.66-.68-1.47-1.02-2.42-1.02Z"/>
      <path d="M211.53,37.92v10.35h-1.97v-6.48l-3.86,6.48h-1.71v-10.35h1.97v6.69l3.91-6.69h1.66Z"/>
      <path d="M214.9,37.92h1.92l2.4,7.22,2.42-7.22h1.92l1.74,10.35h-1.9l-1.11-6.53-2.2,6.53h-1.74l-2.18-6.53-1.14,6.53h-1.92l1.79-10.35Z"/>
      <path d="M229.75,45.89l-3.68-7.97h2.22l2.44,5.77,2-5.77h2.03l-2.75,7.4c-.47,1.27-.99,2.11-1.55,2.54-.56.43-1.15.64-1.78.64-1.02,0-1.97-.5-2.83-1.51l1.29-1.3c.52.6,1.03.9,1.53.9.23,0,.41-.05.56-.16.15-.11.32-.29.52-.54Z"/>
      <path d="M245.49,46.49v-8.57h1.98v8.57h2.12v3.32h-1.84v-1.55h-11.83v-10.35h2v8.57h2.76v-8.57h1.98v8.57h2.83Z"/>
      <path d="M250.85,37.92h5.65v1.93h-3.69v1.87h3.69v1.89h-3.69v2.72h3.69v1.93h-5.65v-10.35Z"/>
      <path d="M267.84,39.73l-1.38,1.31c-.94-.99-1.99-1.49-3.16-1.49-.99,0-1.82.34-2.5,1.01-.68.68-1.02,1.51-1.02,2.5,0,.69.15,1.3.45,1.84.3.54.72.96,1.27,1.26.55.3,1.16.46,1.83.46.57,0,1.09-.11,1.57-.32.47-.21.99-.6,1.56-1.17l1.34,1.39c-.76.75-1.49,1.26-2.17,1.55-.68.29-1.46.43-2.33.43-1.61,0-2.93-.51-3.95-1.53-1.02-1.02-1.54-2.33-1.54-3.92,0-1.03.23-1.95.7-2.75s1.13-1.45,2-1.93c.87-.49,1.81-.73,2.81-.73.85,0,1.68.18,2.47.54.79.36,1.47.87,2.04,1.54Z"/>
      <path d="M268.55,37.92h5.72v1.94h-1.89v8.41h-2v-8.41h-1.84v-1.94Z"/>
      <path d="M275.62,48.26v-10.35h1.63c.94,0,1.63.06,2.07.18.62.16,1.11.47,1.48.91.37.45.55.97.55,1.58,0,.39-.08.75-.25,1.07s-.44.62-.81.9c.63.3,1.09.66,1.38,1.11s.44.97.44,1.57-.15,1.11-.45,1.59-.69.84-1.16,1.07c-.47.24-1.13.36-1.96.36h-2.9ZM277.59,39.79v2.18h.43c.48,0,.84-.1,1.07-.3.23-.2.35-.48.35-.82,0-.32-.11-.58-.33-.77-.22-.19-.56-.28-1.01-.28h-.51ZM277.59,43.73v2.65h.49c.82,0,1.37-.1,1.65-.31.28-.21.43-.51.43-.9,0-.45-.17-.8-.5-1.06-.33-.26-.89-.39-1.66-.39h-.41Z"/>
      <path d="M287.13,37.92h2l3.98,10.35h-2.05l-.81-2.13h-4.22l-.84,2.13h-2.05l3.99-10.35ZM288.14,40.66l-1.39,3.55h2.77l-1.38-3.55Z"/>
    </g>
    <g>
      <path d="M98.89,54.38h5.13v1.93h-3.18v8.42h-1.96v-10.35Z"/>
      <path d="M110.45,54.12c1.46,0,2.72.53,3.78,1.59s1.58,2.35,1.58,3.88-.52,2.79-1.56,3.83c-1.04,1.05-2.3,1.57-3.78,1.57s-2.84-.54-3.87-1.61c-1.03-1.07-1.54-2.35-1.54-3.83,0-.99.24-1.9.72-2.73.48-.83,1.14-1.49,1.97-1.97.84-.49,1.74-.73,2.71-.73ZM110.43,56.05c-.96,0-1.76.33-2.42,1-.65.67-.98,1.51-.98,2.54,0,1.14.41,2.05,1.23,2.72.64.52,1.37.78,2.2.78.93,0,1.73-.34,2.39-1.01s.99-1.51.99-2.5-.33-1.82-.99-2.5c-.66-.68-1.47-1.02-2.42-1.02Z"/>
      <path d="M117.66,54.38h2.09c1.13,0,1.94.1,2.44.31s.89.55,1.18,1.01c.29.47.43,1.03.43,1.68,0,.72-.19,1.32-.57,1.8-.38.48-.89.81-1.54,1-.38.11-1.07.16-2.08.16v4.38h-1.97v-10.35ZM119.62,58.42h.63c.49,0,.83-.04,1.03-.11.19-.07.34-.19.45-.35s.17-.36.17-.59c0-.4-.15-.69-.46-.88-.23-.14-.64-.2-1.25-.2h-.56v2.12Z"/>
      <path d="M130.62,54.12c1.46,0,2.72.53,3.78,1.59s1.58,2.35,1.58,3.88-.52,2.79-1.56,3.83c-1.04,1.05-2.3,1.57-3.78,1.57s-2.84-.54-3.87-1.61c-1.03-1.07-1.54-2.35-1.54-3.83,0-.99.24-1.9.72-2.73s1.14-1.49,1.97-1.97,1.74-.73,2.71-.73ZM130.59,56.05c-.96,0-1.76.33-2.42,1-.65.67-.98,1.51-.98,2.54,0,1.14.41,2.05,1.23,2.72.64.52,1.37.78,2.2.78.93,0,1.73-.34,2.39-1.01s.99-1.51.99-2.5-.33-1.82-.99-2.5c-.66-.68-1.47-1.02-2.42-1.02Z"/>
      <path d="M141.19,54.38h1.99l3.33,8.5h1.15v3.4h-1.91v-1.55h-7.12v1.55h-1.91v-3.4h1.14l3.32-8.5ZM142.2,57.12l-2.27,5.75h4.53l-2.26-5.75Z"/>
      <path d="M152.09,54.38h2l3.98,10.35h-2.05l-.81-2.13h-4.22l-.84,2.13h-2.05l3.99-10.35ZM153.1,57.12l-1.39,3.55h2.77l-1.38-3.55Z"/>
      <path d="M164.63,54.38h1.92l2.4,7.22,2.42-7.22h1.92l1.74,10.35h-1.9l-1.11-6.53-2.2,6.53h-1.74l-2.18-6.53-1.14,6.53h-1.92l1.79-10.35Z"/>
      <path d="M181.47,54.12c1.46,0,2.72.53,3.78,1.59s1.58,2.35,1.58,3.88-.52,2.79-1.56,3.83c-1.04,1.05-2.3,1.57-3.78,1.57s-2.84-.54-3.87-1.61c-1.03-1.07-1.54-2.35-1.54-3.83,0-.99.24-1.9.72-2.73s1.14-1.49,1.97-1.97,1.74-.73,2.71-.73ZM181.45,56.05c-.96,0-1.76.33-2.42,1-.65.67-.98,1.51-.98,2.54,0,1.14.41,2.05,1.23,2.72.64.52,1.37.78,2.2.78.93,0,1.73-.34,2.39-1.01s.99-1.51.99-2.5-.33-1.82-.99-2.5c-.66-.68-1.47-1.02-2.42-1.02Z"/>
      <path d="M198.19,56.2l-1.38,1.31c-.94-.99-1.99-1.49-3.16-1.49-.99,0-1.82.34-2.5,1.01-.68.68-1.02,1.51-1.02,2.5,0,.69.15,1.3.45,1.84s.72.96,1.27,1.26c.55.3,1.16.46,1.83.46.57,0,1.09-.11,1.57-.32.47-.21.99-.6,1.56-1.17l1.34,1.39c-.76.75-1.49,1.26-2.17,1.55-.68.29-1.46.43-2.33.43-1.61,0-2.93-.51-3.95-1.53s-1.54-2.33-1.54-3.92c0-1.03.23-1.95.7-2.75s1.13-1.45,2-1.93c.87-.49,1.81-.73,2.81-.73.85,0,1.68.18,2.47.54.79.36,1.47.87,2.04,1.54Z"/>
      <path d="M199.93,54.38h1.99v3.57l2.81-3.57h2.36l-3.61,4.62,3.96,5.73h-2.34l-3.19-4.6v4.6h-1.99v-10.35Z"/>
      <path d="M208.85,64.73v-10.35h1.63c.94,0,1.63.06,2.07.18.62.16,1.11.47,1.48.91s.55.97.55,1.58c0,.39-.08.75-.25,1.07s-.44.62-.81.9c.63.3,1.09.66,1.38,1.11.29.44.44.97.44,1.57s-.15,1.11-.45,1.59c-.3.48-.69.84-1.16,1.07-.47.24-1.13.36-1.96.36h-2.9ZM210.82,56.26v2.18h.43c.48,0,.84-.1,1.07-.3.23-.2.35-.48.35-.82,0-.32-.11-.58-.33-.77-.22-.19-.56-.28-1.01-.28h-.51ZM210.82,60.2v2.65h.49c.82,0,1.37-.1,1.65-.31.28-.21.43-.51.43-.9,0-.45-.17-.8-.5-1.06-.33-.26-.89-.39-1.66-.39h-.41Z"/>
      <path d="M217.2,64.73v-10.35h1.97v3.9h.43c.82,0,1.5.09,2.05.28s1.02.55,1.42,1.08.6,1.17.6,1.92c0,.71-.17,1.31-.51,1.8s-.74.84-1.19,1.04c-.45.2-1.07.31-1.86.31h-2.89ZM219.17,60.04v2.81h.49c.81,0,1.36-.1,1.63-.3s.41-.55.41-1.03c0-.98-.71-1.47-2.13-1.47h-.41ZM225.09,54.38h1.96v10.35h-1.96v-10.35Z"/>
    </g>
  </g>
</svg>